<svg width="102" height="102" viewBox="0 0 102 102" fill="none" xmlns="http://www.w3.org/2000/svg">
<g clip-path="url(#clip0_199_110)">
<path d="M99.8536 20.9554C100.952 20.9554 101.843 20.0647 101.843 18.9663V10.9774C101.843 9.87881 100.952 8.98828 99.8536 8.98828H1.98911C0.890527 8.98828 0 9.87881 0 10.9774V18.9663C0 20.0647 0.890527 20.9554 1.98911 20.9554H7.98888V53.1785C4.54751 54.0646 1.99727 57.1941 1.99727 60.9082C1.99727 64.6222 4.54751 67.7517 7.98888 68.6379V76.8941H7.95646C3.56927 76.8941 0 80.4633 0 84.8505V90.8666C0 91.965 0.890527 92.8557 1.98911 92.8557H99.8536C100.952 92.8557 101.843 91.965 101.843 90.8666V84.8505C101.843 80.4633 98.2734 76.8941 93.8862 76.8941H93.8538V20.9554H99.8536ZM3.97823 12.9665H97.8644V16.9772C93.3022 16.9772 12.2631 16.9772 3.97823 16.9772V12.9665ZM77.884 56.9057C80.0911 56.9057 81.8867 58.701 81.8867 60.9082C81.8867 63.1153 80.0911 64.9107 77.884 64.9107C75.6769 64.9107 73.8815 63.1153 73.8815 60.9082C73.8815 58.701 75.6769 56.9057 77.884 56.9057ZM75.8949 53.1785C74.3209 53.5836 72.9349 54.4596 71.8924 55.645C70.8499 54.4596 69.4637 53.5836 67.8897 53.1785V20.9554H75.8949V53.1785ZM29.9503 56.9057C32.1574 56.9057 33.953 58.701 33.953 60.9082C33.953 63.1153 32.1574 64.9107 29.9503 64.9107C27.7432 64.9107 25.9478 63.1153 25.9478 60.9082C25.9478 58.701 27.7434 56.9057 29.9503 56.9057ZM31.9394 53.1785V20.9554H39.9446V53.1785C38.3706 53.5836 36.9846 54.4596 35.9421 55.645C34.8996 54.4596 33.5136 53.5836 31.9394 53.1785ZM41.9337 56.9057C44.1408 56.9057 45.9362 58.701 45.9362 60.9082C45.9362 63.1153 44.1408 64.9107 41.9337 64.9107C39.7266 64.9107 37.9312 63.1153 37.9312 60.9082C37.9312 58.701 39.7268 56.9057 41.9337 56.9057ZM43.9228 53.1785V20.9554H51.928V53.1785C50.3538 53.5836 48.9678 54.4596 47.9253 55.645C46.883 54.4596 45.497 53.5836 43.9228 53.1785ZM53.9171 56.9057C56.1243 56.9057 57.9196 58.701 57.9196 60.9082C57.9196 63.1153 56.1243 64.9107 53.9171 64.9107C51.71 64.9107 49.9144 63.1153 49.9144 60.9082C49.9144 58.701 51.7102 56.9057 53.9171 56.9057ZM55.9063 53.1785V20.9554H63.9113V53.1785C62.3373 53.5836 60.9513 54.4596 59.9088 55.645C58.8665 54.4596 57.4804 53.5836 55.9063 53.1785ZM65.9006 56.9057C68.1077 56.9057 69.9033 58.701 69.9033 60.9082C69.9033 63.1153 68.1077 64.9107 65.9006 64.9107C63.6934 64.9107 61.8981 63.1153 61.8981 60.9082C61.8981 58.701 63.6934 56.9057 65.9006 56.9057ZM18.2706 20.9554L11.9671 41.5942V20.9554H18.2706ZM5.9755 60.9082C5.9755 58.7032 7.76749 56.9094 9.97163 56.9059C12.3084 56.9301 13.9807 58.7969 13.9807 60.9082C13.9807 63.1153 12.1851 64.9107 9.978 64.9107C7.77087 64.9107 5.9755 63.1153 5.9755 60.9082ZM97.8644 84.8505V88.8775H3.97823V84.8505C3.97823 82.6569 5.76286 80.8723 7.95646 80.8723H93.8862C96.0798 80.8723 97.8644 82.6569 97.8644 84.8505ZM89.8756 76.8941H11.9671V68.6379C15.4085 67.7517 17.9589 64.622 17.9589 60.9082C17.9589 57.4023 15.6854 54.4193 12.536 53.3503L22.4301 20.9552H27.9612V53.1783C24.5198 54.0644 21.9696 57.1939 21.9696 60.908C21.9696 65.3085 25.5498 68.8887 29.9503 68.8887C32.3356 68.8887 34.4783 67.8354 35.9421 66.1712C39.1265 69.7917 44.7364 69.7971 47.9253 66.1712C51.1163 69.7991 56.7262 69.79 59.9088 66.1712C63.0995 69.7991 68.7096 69.7897 71.8922 66.1712C73.3558 67.8354 75.4986 68.8887 77.8838 68.8887C82.2845 68.8887 85.8647 65.3085 85.8647 60.908C85.8647 57.1939 83.3143 54.0642 79.8729 53.1783V20.9554H89.8754V76.8941H89.8756Z" fill="black"/>
</g>
<defs>
<clipPath id="clip0_199_110">
<rect width="101.843" height="101.843" fill="white"/>
</clipPath>
</defs>
</svg>
