<svg width="157" height="157" viewBox="0 0 157 157" fill="none" xmlns="http://www.w3.org/2000/svg">
<path d="M139.658 101.301H132.591C130.9 101.301 129.454 102.777 129.454 104.468V107.541C129.454 114.972 124.251 121.188 117.212 122.611V107.422H120.504C122.194 107.422 123.564 106.051 123.564 104.361C123.564 102.672 122.194 101.301 120.504 101.301H108.11C106.42 101.301 105.049 102.672 105.049 104.361C105.049 106.051 106.42 107.422 108.11 107.422H111.092V122.611C104.053 121.187 98.8501 114.972 98.8501 107.54V104.467C98.8501 102.777 97.4059 101.301 95.7159 101.301H88.6483C86.9583 101.301 85.5879 102.671 85.5879 104.361C85.5879 106.051 86.9583 107.422 88.6483 107.422H92.7293V107.54C92.7293 118.355 100.686 127.326 111.092 128.817V135.271H108.11C106.42 135.271 105.049 136.642 105.049 138.332C105.049 140.022 106.42 141.392 108.11 141.392H120.504C122.194 141.392 123.564 140.022 123.564 138.332C123.564 136.642 122.194 135.271 120.504 135.271H117.212V128.817C127.618 127.326 135.65 118.355 135.65 107.54L139.658 107.528C141.348 107.528 142.718 106.104 142.718 104.414C142.719 102.724 141.348 101.301 139.658 101.301Z" fill="white"/>
<path d="M60.1125 62.3531C58.3097 64.1554 55.3775 64.1554 53.5762 62.3531C52.3808 61.1583 50.4436 61.1583 49.2479 62.3531C48.0528 63.5482 48.0528 65.486 49.2479 66.6814C53.4357 70.8696 60.2512 70.8705 64.4402 66.6814C65.6356 65.4863 65.6356 63.5488 64.4405 62.3534C63.2458 61.1586 61.3076 61.1583 60.1125 62.3531Z" fill="white"/>
<path d="M46.0882 52.2145C47.7784 52.2145 49.1486 50.8443 49.1486 49.1541C49.1486 47.4639 47.7784 46.0938 46.0882 46.0938C44.398 46.0938 43.0278 47.4639 43.0278 49.1541C43.0278 50.8443 44.398 52.2145 46.0882 52.2145Z" fill="white"/>
<path d="M67.5999 52.2145C69.2901 52.2145 70.6603 50.8443 70.6603 49.1541C70.6603 47.4639 69.2901 46.0938 67.5999 46.0938C65.9097 46.0938 64.5396 47.4639 64.5396 49.1541C64.5396 50.8443 65.9097 52.2145 67.5999 52.2145Z" fill="white"/>
<path d="M114.115 71.598C108.52 71.598 103.135 72.6857 98.2384 74.6572V41.4713C98.2384 18.4015 79.6224 0 56.787 0C33.9198 0 15.3019 18.6038 15.3019 41.4713V101.66C5.81473 108.363 0 119.221 0 131.046V153.631C0 155.321 1.37901 156.692 3.06895 156.692H114.154C137.614 156.692 156.681 137.605 156.681 114.145C156.681 90.6847 137.575 71.598 114.115 71.598ZM56.8041 6.12077C76.2269 6.12077 92.1173 21.8129 92.1173 41.4713V77.7151C85.3845 81.8978 79.6505 88.1391 76.0353 95.178H69.1644V83.3025C78.9576 78.6577 85.9965 68.5416 85.9965 56.8356V36.862C85.9965 35.1721 84.6399 33.8017 82.9499 33.8017C75.8667 33.8017 69.0429 31.226 63.7237 26.5495L58.8613 22.272C57.7008 21.2519 55.9637 21.2565 54.8094 22.2833L50.13 26.3747C44.7918 31.1198 37.9197 33.6642 30.7777 33.6642H30.7247C29.0348 33.6642 27.5435 35.1721 27.5435 36.862V56.8356C27.5435 68.5416 34.5824 78.6577 44.6816 83.3025V95.178H35.7949C30.8392 95.178 26.013 96.2816 21.4224 98.2378V41.4713C21.4227 21.9788 37.3119 6.12077 56.8041 6.12077ZM56.7699 79.8947C44.0552 79.8947 33.6642 69.5503 33.6642 56.8353V39.7942C41.3152 39.15 48.43 36.0902 54.1367 31.0176L56.8252 28.6547L59.6604 31.1459C65.3273 36.1282 72.5308 39.1399 79.8758 39.7893V56.835C79.8761 69.5506 69.4848 79.8947 56.7699 79.8947ZM50.8024 85.3597C52.6386 85.7881 54.8109 86.0158 56.9229 86.0158C59.0351 86.0158 60.9017 85.7881 63.0439 85.3597V97.2128C59.9836 100.752 53.8628 100.756 50.8024 97.2128V85.3597ZM24.4831 150.571V138.267C24.4831 136.577 23.1126 135.207 21.4227 135.207C19.7328 135.207 18.3623 136.577 18.3623 138.267V150.571H6.12077V131.046C6.12077 114.23 19.8503 101.299 35.7952 101.299H46.0894C46.1271 101.299 46.1635 101.335 46.2008 101.334C51.9519 107.508 61.7066 107.53 67.4882 101.324C67.5256 101.325 67.562 101.299 67.5996 101.299H73.564C72.2934 105.278 71.6066 109.659 71.6066 114.105C71.6066 129.534 79.8626 143.111 92.1886 150.571H24.4831V150.571ZM114.153 150.571C94.068 150.571 77.7274 134.23 77.7274 114.145C77.7274 94.06 94.0683 77.7191 114.153 77.7191C134.238 77.7191 150.579 94.06 150.579 114.145C150.579 134.23 134.239 150.571 114.153 150.571Z" fill="white"/>
</svg>
