<svg width="102" height="102" viewBox="0 0 102 102" fill="none" xmlns="http://www.w3.org/2000/svg">
<g clip-path="url(#clip0_199_100)">
<path d="M29.9817 59.9167C26.0427 55.7053 19.2694 57.3237 17.3978 62.5163C16.6477 61.6918 14.7228 59.5706 14.6687 59.5163C14.2411 59.0886 14.0054 58.5197 14.0054 57.9146V33.948C14.0054 30.0867 10.8639 26.9453 7.00268 26.9453C3.14141 26.9453 0 30.0867 0 33.948V67.9008C0 70.0391 0.832842 72.0493 2.34457 73.5614C2.40285 73.6197 1.56881 72.8527 14.8913 85.0535C15.6342 85.811 16.043 86.8107 16.043 87.8731V99.8567C16.043 100.955 16.9337 101.846 18.0321 101.846H41.9337C43.0321 101.846 43.9228 100.955 43.9228 99.8567V75.6058C43.9228 75.1012 43.7311 74.6154 43.3864 74.2471L29.9817 59.9167ZM39.9446 97.8676H20.0212V87.8733C20.0212 85.7352 19.1888 83.725 17.6767 82.2129C17.6102 82.1464 18.0775 82.5783 5.12993 70.7206C4.38699 69.9631 3.97823 68.9636 3.97823 67.901V33.948C3.97823 32.2803 5.335 30.9235 7.00268 30.9235C8.67035 30.9235 10.0269 32.2803 10.0269 33.948V57.9146C10.0269 59.5509 10.6533 61.0901 11.7905 62.2612C13.6254 64.2804 22.8879 74.473 24.7334 76.5039C25.4736 77.3181 26.7315 77.3759 27.5433 76.6382C28.3562 75.8994 28.4165 74.6415 27.6775 73.8284L21.6298 67.1732C20.4972 65.6521 20.756 63.4752 22.2839 62.271C23.7449 61.1191 25.8052 61.275 27.0764 62.634L39.9446 76.3909V97.8676Z" fill="black"/>
<path d="M94.8401 26.9453C90.9788 26.9453 87.8376 30.0867 87.8376 33.948V57.9146C87.8376 58.5197 87.6021 59.0884 87.1742 59.5163C87.1229 59.5676 84.9546 61.9561 84.4452 62.5163C82.5738 57.3241 75.8005 55.7055 71.8612 59.9167L58.4564 74.2471C58.1117 74.6154 57.9199 75.1012 57.9199 75.6058V99.8567C57.9199 100.955 58.8106 101.846 59.909 101.846H83.8106C84.909 101.846 85.7998 100.955 85.7998 99.8567V87.8733C85.7998 86.8109 86.2085 85.8112 86.9514 85.0537C100.127 72.9875 99.4395 73.6203 99.4982 73.5616C101.01 72.0495 101.843 70.0393 101.843 67.901V33.948C101.843 30.0867 98.7014 26.9453 94.8401 26.9453ZM97.8645 67.901C97.8645 68.9636 97.4558 69.9631 96.7128 70.7206C83.7086 82.63 84.2295 82.1494 84.1661 82.2129C82.654 83.725 81.8215 85.7352 81.8215 87.8733V97.8676H61.8982V76.3911L74.7663 62.6342C76.0374 61.2758 78.0973 61.1195 79.5589 62.2712C81.0848 63.4736 81.3473 65.6499 80.2129 67.1734L74.165 73.8285C73.4261 74.6417 73.4863 75.8996 74.2993 76.6384C75.112 77.3769 76.3702 77.3175 77.1091 76.5041C78.9809 74.4444 88.2285 64.2681 90.0521 62.2614C91.1893 61.0903 91.8156 59.5509 91.8156 57.9148V33.948C91.8156 32.2803 93.1724 30.9235 94.8401 30.9235C96.5078 30.9235 97.8645 32.2805 97.8645 33.948V67.901Z" fill="black"/>
<path d="M67.4987 18.3008H62.9051C61.8067 18.3008 60.916 19.1915 60.916 20.2899V22.2872C60.916 27.1171 57.4718 31.157 52.9108 32.082V22.279H55.0493C56.1477 22.279 57.0384 21.3883 57.0384 20.2899C57.0384 19.1915 56.1477 18.3008 55.0493 18.3008H46.9938C45.8954 18.3008 45.0046 19.1915 45.0046 20.2899C45.0046 21.3883 45.8954 22.279 46.9938 22.279H48.9326V32.082C44.3715 31.1572 40.9274 27.1171 40.9274 22.2872V20.2899C40.9274 19.1915 40.0366 18.3008 38.9382 18.3008H34.3446C33.2462 18.3008 32.3555 19.1915 32.3555 20.2899C32.3555 21.3883 33.2462 22.279 34.3446 22.279H36.9491V22.2872C36.9491 29.3161 42.1672 35.1468 48.9326 36.1155V40.2704H46.9938C45.8954 40.2704 45.0046 41.1609 45.0046 42.2595C45.0046 43.3579 45.8954 44.2486 46.9938 44.2486H55.0493C56.1477 44.2486 57.0384 43.3579 57.0384 42.2595C57.0384 41.1609 56.1477 40.2704 55.0493 40.2704H52.9108V36.1155C59.6762 35.1468 64.8942 29.3159 64.8942 22.2872L67.4987 22.279C68.5971 22.279 69.4879 21.3883 69.4879 20.2899C69.4879 19.1913 68.5971 18.3008 67.4987 18.3008Z" fill="black"/>
<path d="M79.3856 28.464C79.3856 12.7687 66.6167 0 50.9215 0C35.2264 0 22.4575 12.7687 22.4575 28.464C22.4575 44.1591 35.2262 56.9281 50.9215 56.9281C66.6169 56.9281 79.3856 44.1591 79.3856 28.464ZM50.9215 52.9496C37.42 52.9496 26.4357 41.9653 26.4357 28.4638C26.4357 14.9625 37.42 3.97823 50.9215 3.97823C64.4231 3.97823 75.4073 14.9625 75.4073 28.464C75.4073 41.9655 64.4231 52.9496 50.9215 52.9496Z" fill="black"/>
</g>
<defs>
<clipPath id="clip0_199_100">
<rect width="101.843" height="101.843" fill="white"/>
</clipPath>
</defs>
</svg>
